HIERARCHY
ROOT Spine
{
    OFFSET 0.0 0.0 -0.0
    CHANNELS 6 Xposition Yposition Zposition Zrotation Xrotation Yrotation
    JOINT ShoulderCenter
    {
        OFFSET 0.0 0.23286856710910797 0.0
        CHANNELS 3 Zrotation Xrotation Yrotation
        JOINT LeftShoulder
        {
            OFFSET 0.1737583875656128 0.0 0.0
            CHANNELS 3 Zrotation Xrotation Yrotation
            JOINT LeftElbow
            {
                OFFSET 0.2503998279571533 0.0 0.0
                CHANNELS 3 Zrotation Xrotation Yrotation
                JOINT LeftHand
                {
                    OFFSET 0.2497144341468811 0.0 0.0
                    CHANNELS 3 Zrotation Xrotation Yrotation
                    End Site
                    {
                        OFFSET 0.09988577663898468 0.0 0.0
                    }
                }
            }
        }
        JOINT RightShoulder
        {
            OFFSET -0.1737583875656128 0.0 0.0
            CHANNELS 3 Zrotation Xrotation Yrotation
            JOINT RightElbow
            {
                OFFSET -0.2503998279571533 0.0 0.0
                CHANNELS 3 Zrotation Xrotation Yrotation
                JOINT RightHand
                {
                    OFFSET -0.2497144341468811 0.0 0.0
                    CHANNELS 3 Zrotation Xrotation Yrotation
                    End Site
                    {
                        OFFSET -0.09988577663898468 0.0 0.0
                    }
                }
            }
        }
        End Site
        {
            OFFSET 0.0 0.09314742684364319 0.0
        }
    }
    JOINT LeftHip
    {
        OFFSET 0.224323840580656 -0.224323840580656 0.0
        CHANNELS 3 Zrotation Xrotation Yrotation
        JOINT LeftKnee
        {
            OFFSET 0.0 -0.385329931974411 0.0
            CHANNELS 3 Zrotation Xrotation Yrotation
            JOINT LeftFoot
            {
                OFFSET 0.0 -0.4565797448158264 0.0
                CHANNELS 3 Zrotation Xrotation Yrotation
                End Site
                {
                    OFFSET 0.0 0.0 0.18263190984725952
                }
            }
        }
    }
    JOINT RightHip
    {
        OFFSET -0.224323840580656 -0.224323840580656 0.0
        CHANNELS 3 Zrotation Xrotation Yrotation
        JOINT RightKnee
        {
            OFFSET 0.0 -0.385329931974411 0.0
            CHANNELS 3 Zrotation Xrotation Yrotation
            JOINT RightFoot
            {
                OFFSET 0.0 -0.4565797448158264 0.0
                CHANNELS 3 Zrotation Xrotation Yrotation
                End Site
                {
                    OFFSET 0.0 0.0 0.18263190984725952
                }
            }
        }
    }
}
MOTION
Frames: 8
Frame Time: 0.03333333333333333
-0.32785651087760925 0.33521491289138794 3.4847190380096436 4.91040837128409 -14.99086717923486 127.24650776494518 8.265984809561295e-08 -1.1351526496842656e-06 8.095735887163814 61.11779742007719 26.043595794652237 -126.79921421241052 -1.3440165072223932e-06 9.377426277093452e-07 165.38343105339146 -2.0375428428125655e-15 0.0 0.0 39.6298986560382 52.79782767892023 118.86753215375279 2.127050074601409e-06 1.1953355559686317e-06 -113.48979366143064 7.951386703658792e-15 -2.2069531490250793e-31 -3.1805546814635168e-15 7.0243684643827216 9.081626291339873 -43.9274868666833 3.3836824013669973 -1.3008666064641305 3.8887671605497776 0.0 0.0 1.3914926731402882e-15 -0.19119525265508663 3.1623402676557086 47.70446183927194 2.9283161833290134 5.774246079754367 20.248604987068266 -3.975693351829396e-16 -3.1805546814635168e-15 -4.969616689786745e-16
-0.327370285987854 0.3338907063007355 3.4857840538024902 4.9289846174621825 -15.00772627531447 125.92969973654131 1.6700297922603205e-06 -6.693378253298751e-07 9.416468014012471 56.77567619343852 29.565711183220163 -124.84376086080468 2.928119610473042e-06 2.3561953936656054e-06 165.96798015094805 -8.696829207126801e-16 0.0 0.0 37.63653763216567 53.10279966353918 120.08432874621315 -4.027015575020651e-06 6.535222970505302e-06 -114.33726479146226 -1.5902773407317584e-15 -6.3611093629270335e-15 -8.827812596100317e-32 6.632539321465495 9.666032192125655 -42.71796590889751 3.99181340377873 -1.5799456386790902 4.705754731410566 1.5902773407317588e-15 5.931186588004901e-32 4.273870353216602e-15 0.5969227559903801 2.691557226131302 40.12150174483827 1.530004728795032 7.635745966420521 27.62555489567668 -1.6552148617688095e-32 3.1805546814635176e-15 5.963540027744096e-16
-0.32692891359329224 0.33363771438598633 3.4858310222625732 4.900331025715112 -14.963839186124765 128.20913139542938 -1.225612372745779e-06 4.636529983108103e-07 7.156108445132928 143.50176286593893 -36.730197214780894 -125.53930727189596 9.494218694832198e-06 1.6496215758235018e-06 129.10415005782764 -6.3611093629270335e-15 -4.770832022195275e-15 -2.648343778830095e-31 31.915842073317805 54.87461598227563 123.54635891004908 -1.6139085049618857e-07 -5.026063421537807e-07 -114.31791683748807 1.5902773407317582e-15 0.0 0.0 7.4731787912700085 9.129714883777599 -45.79137649869778 3.4996565785675187 -1.6996200623006015 5.311758057630551 0.0 0.0 1.1529510720305249e-14 0.02384557789244481 3.4375040785068607 47.04902855830351 2.734246535849683 6.413033926783493 21.951489924411884 1.6552148617688095e-32 -3.1805546814635164e-15 5.963540027744093e-16
-0.3252744972705841 0.3352111876010895 3.4865241050720215 5.025434293088068 -14.970769192532844 144.6990310426193 5.779653172750705e-07 -1.3579980607743683e-07 -9.318494186816084 144.19769299143005 -38.3662868967273 -124.92008656197528 -3.205211945544694e-07 -2.650308194648274e-06 128.71060902757125 -3.1805546814635168e-15 0.0 0.0 28.413578090725103 54.50995509236292 126.04762817224757 -1.732036350040263e-06 -4.857033365929931e-06 -113.91861634117438 0.0 0.0 0.0 13.757649327697095 3.025578685684958 -82.1117796716656 -0.28734485171949387 -3.744352002428284 18.11687992434368 2.6207568644672815e-32 7.951386703658792e-16 -3.776908684237926e-15 -0.45500037398895377 6.577374823818742 61.31322376570272 3.6457272036005888 1.2480360754286302 3.491098150328839 0.0 0.0 -5.963540027744094e-16
-0.3231121897697449 0.33679819107055664 3.4878499507904053 4.915497125910596 -14.822529848825353 147.1741053273628 1.4681653558212865e-07 -1.1542858180984338e-07 -11.804814763743986 145.78659588713222 -39.59086699912153 -123.86936805207077 1.2035126557715113e-06 7.209856035410752e-07 128.8933258754551 8.827812596100317e-32 1.5902773407317584e-15 -6.3611093629270335e-15 26.389705757536536 55.26875404137321 126.55800372171771 1.4783545508471587e-06 -1.9284252562967874e-06 -114.97522422534685 0.0 0.0 -3.1805546814635176e-15 14.2428553240384 2.065386363682975 -86.99472084950914 -0.5959779342929751 -4.392540773649387 22.240993084673867 -1.5902773407317584e-15 7.951386703658792e-16 2.3854160110976376e-15 -0.493386091677299 7.067090665635205 62.96673608430902 3.191020101528361 0.7827323352878057 2.1988258398016227 2.758691436281349e-32 3.1805546814635176e-15 -9.939233379573492e-16
-0.32038429379463196 0.33931559324264526 3.490518093109131 4.381160403647732 -13.942802486199602 151.56182371217517 -4.4550034645605405e-08 3.6604508061679035e-07 -16.430942019628258 148.27910784567086 -43.94180909734347 -123.5209418638827 2.2013495663640658e-06 7.501798086513436e-07 136.52393147149905 0.0 0.0 0.0 23.04398155427865 54.98586671739513 128.25301037488188 -5.470205677044212e-07 8.213351297916928e-06 -114.84114302886556 6.361109362927035e-15 1.7655625192200634e-31 3.1805546814635176e-15 13.948579143845448 0.8285076038477796 -94.1495432539513 -0.9545737746078843 -4.9477265410461975 26.774475368327135 1.5902773407317584e-15 -1.5902773407317584e-15 1.6896696745274934e-15 -1.168766777453449 8.449269715360128 66.06529527252297 2.660978480244273 -0.3923762882197186 -1.0698362777241301 7.95138670365879e-16 3.1805546814635164e-15 2.7829853462805768e-15
-0.3199084997177124 0.3416900038719177 3.493195056915283 4.339692264741769 -12.96410339365237 151.81912025256148 -6.063903101334148e-08 2.2963130383498907e-06 -17.790830940641666 143.28613700703525 -46.06571155365077 -131.71494559452768 -6.76580244536568e-07 2.073575417222742e-07 133.26080484599086 -6.3611093629270335e-15 0.0 0.0 16.559317262151115 54.30227809961664 133.19625629122888 -3.9586859430385165e-06 1.5345013754838204e-06 -114.04127719230823 0.0 0.0 1.5902773407317584e-15 13.437246327014922 1.5803407995317733 -92.34327076245862 -1.035082614033046 -4.767335391428348 24.943136692680408 -1.5902773407317584e-15 -1.5902773407317584e-15 2.981770013872047e-16 -1.7903309986351998 9.47206018044638 68.94842673085171 2.865210247929596 -0.4595238402999225 -1.2148781099415993 8.827812596100317e-32 3.1805546814635168e-15 -3.1805546814635168e-15
-0.319731205701828 0.3423289954662323 3.4939520359039307 4.298761445117838 -12.735122711261683 151.5951605464297 -3.2156062738538456e-07 4.341967813058171e-07 -17.59768361396804 143.62617408533725 -49.18598578271496 -134.01775777957195 -1.425636560851163e-06 5.39221745987249e-06 132.6351605904166 0.0 -1.5902773407317584e-15 0.0 29.222304024716998 53.711270463407374 120.09495316647815 2.4894810146127076e-06 -2.3067994513553357e-06 -114.35201439430386 -7.951386703658792e-15 2.2069531490250793e-31 -3.1805546814635168e-15 13.205560957748599 1.995175093817168 -90.24152612226655 -0.8144480494511259 -4.6416770669779215 24.053976509126375 0.0 0.0 2.7829853462805764e-15 -2.052068588215117 9.72467742533652 70.21742763089537 2.8659106995835675 -0.7384602709246277 -1.9425998271301887 -7.951386703658794e-16 3.1805546814635168e-15 6.5598940305185035e-15
